# xmcd
# 
# Track frame offsets:
#     150
#     22475
#     41686
#     63266
#     79544
#     101363
#     123724
# 
# Disc length: 1975
# 
# Revision: 0
# Processed by: cddbd v1.5.2PL0 Copyright (c) Steve Scherf et al.
# Submitted via: fre:ac v1.1beta1pre3
# 
DISCID=5907b507
DTITLE=Cristelle Rodriguez - Sencillamente gracias
DYEAR=2016
DGENRE=
TTITLE0=Solo tú
TTITLE1=Eres
TTITLE2=Bajo de tu abrigo
TTITLE3=Tuya soy
TTITLE4=Tú Eres más
TTITLE5=No te rindas
TTITLE6=No importa
EXTD=
EXTT0=
EXTT1=
EXTT2=
EXTT3=
EXTT4=
EXTT5=
EXTT6=
PLAYORDER=
